<?xml version="1.0" encoding="utf-8"?>
<!-- Generator: Adobe Illustrator 27.5.0, SVG Export Plug-In . SVG Version: 6.00 Build 0)  -->
<svg version="1.1" xmlns="http://www.w3.org/2000/svg" xmlns:xlink="http://www.w3.org/1999/xlink" x="0px" y="0px"
	 viewBox="0 0 500 500" style="enable-background:new 0 0 500 500;" xml:space="preserve">
<g id="Background_Complete">
	<g>
		<rect y="382.398" style="fill:#EBEBEB;" width="500" height="0.25"/>
		<rect x="416.779" y="398.494" style="fill:#EBEBEB;" width="33.122" height="0.25"/>
		<rect x="322.527" y="401.208" style="fill:#EBEBEB;" width="8.693" height="0.25"/>
		<rect x="396.586" y="389.208" style="fill:#EBEBEB;" width="19.192" height="0.25"/>
		<rect x="52.459" y="390.888" style="fill:#EBEBEB;" width="43.193" height="0.25"/>
		<rect x="104.556" y="390.888" style="fill:#EBEBEB;" width="6.333" height="0.25"/>
		<rect x="131.471" y="395.111" style="fill:#EBEBEB;" width="93.676" height="0.25"/>
		<path style="fill:#EBEBEB;" d="M237.014,337.8H43.915c-3.147,0-5.708-2.561-5.708-5.708V60.66c0-3.147,2.561-5.708,5.708-5.708
			h193.099c3.146,0,5.707,2.561,5.707,5.708v271.432C242.721,335.239,240.16,337.8,237.014,337.8z M43.915,55.203
			c-3.01,0-5.458,2.448-5.458,5.458v271.432c0,3.01,2.448,5.458,5.458,5.458h193.099c3.009,0,5.457-2.448,5.457-5.458V60.66
			c0-3.009-2.448-5.458-5.457-5.458H43.915z"/>
		<path style="fill:#EBEBEB;" d="M453.31,337.8H260.212c-3.147,0-5.707-2.561-5.707-5.708V60.66c0-3.147,2.561-5.708,5.707-5.708
			H453.31c3.148,0,5.708,2.561,5.708,5.708v271.432C459.019,335.239,456.458,337.8,453.31,337.8z M260.212,55.203
			c-3.009,0-5.457,2.448-5.457,5.458v271.432c0,3.01,2.448,5.458,5.457,5.458H453.31c3.01,0,5.458-2.448,5.458-5.458V60.66
			c0-3.009-2.448-5.458-5.458-5.458H260.212z"/>
	</g>
	<g>
		<g>
			<path style="fill:#E0E0E0;" d="M446.585,382.53H311.102c-1.315,0-2.381-1.066-2.381-2.381v-14.237
				c0-1.315,1.066-2.381,2.381-2.381h135.483c1.315,0,2.381,1.066,2.381,2.381v14.237C448.966,381.464,447.9,382.53,446.585,382.53z
				"/>
			<path style="fill:#FAFAFA;enable-background:new    ;" d="M326.289,368.65H313.29c-0.721,0-1.305-0.584-1.305-1.305l0,0
				c0-0.721,0.584-1.305,1.305-1.305h12.999c0.721,0,1.305,0.584,1.305,1.305l0,0C327.594,368.066,327.01,368.65,326.289,368.65z"/>
			<path style="fill:#FAFAFA;enable-background:new    ;" d="M366.289,373.804H313.29c-0.721,0-1.305-0.584-1.305-1.305l0,0
				c0-0.721,0.584-1.305,1.305-1.305h52.999c0.721,0,1.305,0.584,1.305,1.305l0,0C367.594,373.22,367.01,373.804,366.289,373.804z"
				/>
			<path style="fill:#FAFAFA;enable-background:new    ;" d="M359.289,378.804H313.29c-0.721,0-1.305-0.584-1.305-1.305l0,0
				c0-0.721,0.584-1.305,1.305-1.305h45.999c0.721,0,1.305,0.584,1.305,1.305l0,0C360.594,378.22,360.01,378.804,359.289,378.804z"
				/>
		</g>
		<g>
			<path style="fill:#E0E0E0;" d="M433.691,340.211H298.209c-1.315,0-2.381-1.066-2.381-2.381v-14.237
				c0-1.315,1.066-2.381,2.381-2.381h135.483c1.315,0,2.381,1.066,2.381,2.381v14.237
				C436.073,339.145,435.007,340.211,433.691,340.211z"/>
			<path style="fill:#FAFAFA;enable-background:new    ;" d="M313.396,326.331h-12.999c-0.721,0-1.305-0.584-1.305-1.305l0,0
				c0-0.721,0.584-1.305,1.305-1.305h12.999c0.721,0,1.305,0.584,1.305,1.305l0,0C314.701,325.747,314.117,326.331,313.396,326.331z
				"/>
			<path style="fill:#FAFAFA;enable-background:new    ;" d="M353.396,331.485h-52.999c-0.721,0-1.305-0.584-1.305-1.305l0,0
				c0-0.721,0.584-1.305,1.305-1.305h52.999c0.721,0,1.305,0.584,1.305,1.305l0,0C354.701,330.901,354.117,331.485,353.396,331.485z
				"/>
			<path style="fill:#FAFAFA;enable-background:new    ;" d="M346.396,336.485h-45.999c-0.721,0-1.305-0.584-1.305-1.305l0,0
				c0-0.721,0.584-1.305,1.305-1.305h45.999c0.721,0,1.305,0.584,1.305,1.305l0,0C347.701,335.901,347.117,336.485,346.396,336.485z
				"/>
		</g>
		<g>
			<path style="fill:#EBEBEB;" d="M424.503,361.55H289.02c-1.315,0-2.381-1.066-2.381-2.381v-14.237
				c0-1.315,1.066-2.381,2.381-2.381h135.483c1.315,0,2.381,1.066,2.381,2.381v14.237
				C426.884,360.484,425.818,361.55,424.503,361.55z"/>
			<path style="fill:#FAFAFA;enable-background:new    ;" d="M304.207,347.67h-12.999c-0.721,0-1.305-0.584-1.305-1.305l0,0
				c0-0.721,0.584-1.305,1.305-1.305h12.999c0.721,0,1.305,0.584,1.305,1.305l0,0C305.513,347.086,304.928,347.67,304.207,347.67z"
				/>
			<path style="fill:#FAFAFA;enable-background:new    ;" d="M344.207,352.824h-52.999c-0.721,0-1.305-0.584-1.305-1.305l0,0
				c0-0.721,0.584-1.305,1.305-1.305h52.999c0.721,0,1.305,0.584,1.305,1.305l0,0C345.513,352.239,344.928,352.824,344.207,352.824z
				"/>
			<path style="fill:#FAFAFA;enable-background:new    ;" d="M337.207,357.824h-45.999c-0.721,0-1.305-0.584-1.305-1.305l0,0
				c0-0.721,0.584-1.305,1.305-1.305h45.999c0.721,0,1.305,0.584,1.305,1.305l0,0C338.513,357.239,337.928,357.824,337.207,357.824z
				"/>
		</g>
		<g>
			<polygon style="fill:#E0E0E0;" points="63.727,272.775 41.24,382.648 147.195,382.648 			"/>
			<g>
				<polygon style="fill:#F5F5F5;" points="217.714,382.648 81.991,382.648 63.727,272.775 199.45,272.775 				"/>
				<g>
					<polygon style="fill:#EBEBEB;" points="97.797,312.316 76.315,312.316 73.499,295.532 94.981,295.532 					"/>
					<polygon style="fill:#EBEBEB;" points="123.363,311.975 101.881,311.975 99.065,295.191 120.547,295.191 					"/>
					<polygon style="fill:#EBEBEB;" points="148.928,311.635 127.447,311.635 124.63,294.85 146.112,294.85 					"/>
					<polygon style="fill:#EBEBEB;" points="174.494,311.294 153.012,311.294 150.196,294.51 171.678,294.51 					"/>
					<polygon style="fill:#EBEBEB;" points="200.06,310.953 178.578,310.953 175.762,294.169 197.244,294.169 					"/>
					<polygon style="fill:#EBEBEB;" points="101.269,333.009 79.787,333.009 76.971,316.224 98.453,316.224 					"/>
					<polygon style="fill:#EBEBEB;" points="126.835,332.668 105.353,332.668 102.536,315.883 124.019,315.883 					"/>
					<polygon style="fill:#EBEBEB;" points="152.4,332.327 130.918,332.327 128.102,315.543 149.584,315.543 					"/>
					<polygon style="fill:#EBEBEB;" points="177.966,331.987 156.484,331.987 153.668,315.202 175.15,315.202 					"/>
					<polygon style="fill:#EBEBEB;" points="203.532,331.646 182.05,331.646 179.234,314.861 200.715,314.861 					"/>
					<polygon style="fill:#EBEBEB;" points="104.741,353.701 83.259,353.701 80.443,336.916 101.925,336.916 					"/>
					<polygon style="fill:#EBEBEB;" points="130.306,353.36 108.825,353.36 106.008,336.576 127.49,336.576 					"/>
					<polygon style="fill:#EBEBEB;" points="155.872,353.02 134.39,353.02 131.574,336.235 153.056,336.235 					"/>
					<polygon style="fill:#EBEBEB;" points="181.438,352.679 159.956,352.679 157.14,335.894 178.622,335.894 					"/>
					<polygon style="fill:#EBEBEB;" points="207.003,352.338 185.521,352.338 182.705,335.553 204.187,335.553 					"/>
					<polygon style="fill:#EBEBEB;" points="108.213,374.393 86.731,374.393 83.914,357.609 105.396,357.609 					"/>
					<polygon style="fill:#EBEBEB;" points="133.778,374.052 112.296,374.052 109.48,357.268 130.962,357.268 					"/>
					<polygon style="fill:#EBEBEB;" points="159.344,373.712 137.862,373.712 135.046,356.927 156.528,356.927 					"/>
					<polygon style="fill:#EBEBEB;" points="184.91,373.371 163.428,373.371 160.611,356.586 182.093,356.586 					"/>
					<polygon style="fill:#EBEBEB;" points="210.475,373.03 188.993,373.03 186.177,356.246 207.659,356.246 					"/>
				</g>
				<polygon style="fill:#E6E6E6;" points="201.841,287.023 66.118,287.023 63.727,272.775 199.45,272.775 				"/>
			</g>
		</g>
		<g>
			<path style="fill:#EBEBEB;" d="M285.066,266.754l-1.749-1.628c-0.64-0.596-1.523-0.854-2.353-0.687l-9.634,1.932
				c-0.83,0.166-1.497,0.735-1.777,1.516l-0.766,2.132c-0.28,0.78-0.947,1.349-1.777,1.516l-5.749,1.153
				c-1.371,0.275-2.192,1.605-1.835,2.971l8.312,31.799c0.357,1.366,1.758,2.251,3.128,1.976l45.562-9.136
				c1.371-0.275,2.192-1.605,1.835-2.971l-8.312-31.799c-0.357-1.366-1.758-2.251-3.128-1.976l-19.404,3.891
				C286.589,267.608,285.706,267.35,285.066,266.754z"/>
			<path style="fill:#F5F5F5;" d="M311.992,265.704l-41.742,8.37c-1.74,0.349-2.996,2.057-2.806,3.814l3.077,28.363
				c0.191,1.758,1.756,2.899,3.496,2.55l41.742-8.37c1.74-0.349,2.996-2.056,2.806-3.814l-3.077-28.363
				C315.298,266.497,313.732,265.355,311.992,265.704z"/>
		</g>
		<g>
			<path style="fill:#EBEBEB;" d="M429.856,193.497l-1.011-2.165c-0.37-0.792-1.092-1.363-1.923-1.52l-9.655-1.822
				c-0.832-0.157-1.663,0.12-2.216,0.738l-1.51,1.689c-0.552,0.618-1.384,0.896-2.216,0.739l-5.762-1.087
				c-1.374-0.259-2.634,0.666-2.815,2.066l-4.219,32.595c-0.181,1.4,0.785,2.746,2.159,3.005l45.663,8.617
				c1.374,0.259,2.634-0.666,2.815-2.066l4.22-32.595c0.181-1.4-0.785-2.745-2.159-3.005l-19.448-3.67
				C430.948,194.86,430.226,194.29,429.856,193.497z"/>
			<path style="fill:#F5F5F5;" d="M455.211,202.621l-41.834-7.895c-1.744-0.329-3.549,0.783-4.031,2.483l-7.784,27.447
				c-0.482,1.701,0.541,3.346,2.285,3.675l41.834,7.895c1.744,0.329,3.549-0.783,4.031-2.483l7.784-27.447
				C457.978,204.596,456.955,202.95,455.211,202.621z"/>
		</g>
		<g>
			<path style="fill:#EBEBEB;" d="M76.175,123.885l-1.011-2.165c-0.37-0.792-1.092-1.363-1.923-1.52l-9.655-1.822
				c-0.832-0.157-1.663,0.12-2.216,0.739l-1.51,1.689c-0.553,0.618-1.384,0.895-2.216,0.739l-5.762-1.087
				c-1.374-0.259-2.634,0.666-2.815,2.066l-4.219,32.596c-0.181,1.4,0.785,2.745,2.159,3.005l45.663,8.617
				c1.374,0.259,2.634-0.666,2.815-2.066l4.219-32.596c0.181-1.4-0.785-2.745-2.159-3.005l-19.447-3.67
				C77.267,125.248,76.545,124.678,76.175,123.885z"/>
			<path style="fill:#F5F5F5;" d="M101.53,133.009l-41.834-7.895c-1.744-0.329-3.549,0.783-4.031,2.484l-7.784,27.447
				c-0.482,1.701,0.541,3.346,2.285,3.675l41.834,7.895c1.744,0.329,3.549-0.783,4.031-2.483l7.784-27.447
				C104.297,134.983,103.274,133.338,101.53,133.009z"/>
		</g>
		<g>
			<path style="fill:#EBEBEB;" d="M221.842,159.883l-2.33-2.889c-0.853-1.057-2.153-1.649-3.466-1.576l-15.239,0.844
				c-1.313,0.073-2.464,0.8-3.067,1.938l-1.649,3.109c-0.603,1.138-1.754,1.865-3.067,1.938l-9.094,0.504
				c-2.168,0.12-3.725,1.984-3.478,4.163l5.762,50.729c0.247,2.179,2.206,3.848,4.374,3.728l72.072-3.991
				c2.168-0.12,3.725-1.984,3.478-4.163l-5.762-50.729c-0.248-2.179-2.206-3.848-4.374-3.728l-30.695,1.7
				C223.996,161.532,222.695,160.941,221.842,159.883z"/>
			<path style="fill:#F5F5F5;" d="M263.475,164.21l-66.029,3.656c-2.753,0.152-5.061,2.501-5.156,5.245l-1.529,44.29
				c-0.095,2.744,2.06,4.845,4.813,4.693l66.029-3.656c2.753-0.152,5.061-2.501,5.156-5.245l1.529-44.29
				C268.383,166.159,266.228,164.058,263.475,164.21z"/>
		</g>
		<g>
			<path style="fill:#EBEBEB;" d="M247.143,69.471l-1.812-1.557c-0.663-0.57-1.556-0.792-2.378-0.593l-9.549,2.313
				c-0.822,0.199-1.466,0.794-1.715,1.585l-0.681,2.161c-0.249,0.791-0.893,1.386-1.715,1.585l-5.699,1.38
				c-1.359,0.329-2.127,1.691-1.716,3.041l9.569,31.444c0.411,1.351,1.845,2.179,3.204,1.85l45.163-10.938
				c1.359-0.329,2.127-1.691,1.716-3.041l-9.569-31.444c-0.411-1.351-1.846-2.179-3.204-1.85l-19.235,4.659
				C248.699,70.263,247.806,70.041,247.143,69.471z"/>
			<path style="fill:#F5F5F5;" d="M274.006,67.351L232.63,77.372c-1.725,0.418-2.912,2.174-2.652,3.923l4.201,28.218
				c0.26,1.749,1.87,2.827,3.595,2.409l41.376-10.021c1.725-0.418,2.912-2.174,2.652-3.922l-4.201-28.218
				C277.34,68.012,275.731,66.934,274.006,67.351z"/>
		</g>
	</g>
</g>
<g id="Backgorund_Simple" style="display:none;">
	<g style="display:inline;">
		<path style="fill:#407BFF;" d="M405.073,154.777c46.057,35.538,35.914,115.178-14.8,141.311
			c-18.809,9.693-40.819,10.957-61.948,9.817c-29.394-1.586-60.147-6.266-88.862,2.625c-24.047,7.445-38.855,29.07-53.337,48.138
			c-21.166,27.869-59.198,37.728-92.165,27.885c-82.801-24.722-51.706-131.117-8.487-177.245
			c22.411-23.919,50.675-42.346,80.641-55.354c54.328-23.584,115.416-30.505,174.031-22.021
			C362.991,133.24,386.946,140.79,405.073,154.777z"/>
		<path style="opacity:0.9;fill:#FFFFFF;enable-background:new    ;" d="M405.073,154.777
			c46.057,35.538,35.914,115.178-14.8,141.311c-18.809,9.693-40.819,10.957-61.948,9.817c-29.394-1.586-60.147-6.266-88.862,2.625
			c-24.047,7.445-38.855,29.07-53.337,48.138c-21.166,27.869-59.198,37.728-92.165,27.885
			c-82.801-24.722-51.706-131.117-8.487-177.245c22.411-23.919,50.675-42.346,80.641-55.354
			c54.328-23.584,115.416-30.505,174.031-22.021C362.991,133.24,386.946,140.79,405.073,154.777z"/>
	</g>
</g>
<g id="Shadow_1_">
	<ellipse id="_x3C_Path_x3E__359_" style="fill:#F5F5F5;" cx="250" cy="416.238" rx="193.889" ry="11.323"/>
</g>
<g id="Timeline">
	<g>
		<g>
			<path style="fill:#407BFF;" d="M420.78,87.3v171.89c0,2.79-2.27,5.06-5.06,5.06H79.44c-2.79,0-5.06-2.27-5.06-5.06V87.3
				c0-2.8,2.27-5.06,5.06-5.06h336.28C418.51,82.24,420.78,84.5,420.78,87.3z"/>
			<path style="opacity:0.7;fill:#FFFFFF;enable-background:new    ;" d="M420.78,107.35v151.84c0,2.79-2.27,5.06-5.06,5.06H79.44
				c-2.79,0-5.06-2.27-5.06-5.06V107.35H420.78z"/>
			<g>
				<path style="opacity:0.1;enable-background:new    ;" d="M110.37,107.35v156.9H79.44c-2.79,0-5.06-2.27-5.06-5.06V107.35H110.37
					z"/>
				<rect x="142.82" y="107.35" style="opacity:0.1;enable-background:new    ;" width="35.99" height="156.9"/>
				<rect x="211.26" y="107.35" style="opacity:0.1;enable-background:new    ;" width="35.99" height="156.9"/>
				<rect x="279.7" y="107.35" style="opacity:0.1;enable-background:new    ;" width="35.99" height="156.9"/>
				<rect x="348.14" y="107.35" style="opacity:0.1;enable-background:new    ;" width="35.99" height="156.9"/>
			</g>
			<rect x="74.38" y="107.35" style="opacity:0.7;fill:#FFFFFF;enable-background:new    ;" width="346.4" height="14.409"/>
			<g style="opacity:0.3;enable-background:new    ;">
				<g>
					<path d="M87.809,112.08h0.705l-0.696,4.45h-0.639l-0.383-2.448l-0.357,2.448h-0.642l-0.745-4.45h0.703l0.352,2.383l0.323-2.383
						h0.703l0.351,2.381L87.809,112.08z"/>
					<path d="M89.078,116.53v-4.453h1.91v0.675h-1.239v1.214h0.906v0.675h-0.906v1.214h1.239v0.675H89.078z"/>
					<path d="M91.45,116.53v-4.453h1.91v0.675h-1.239v1.214h0.906v0.675h-0.906v1.214h1.239v0.675H91.45z"/>
					<path d="M94.493,115.118v1.412h-0.671v-4.453h0.671v1.587l0.82-1.587h0.716l-0.919,1.816l1.078,2.637h-0.789l-0.705-1.808
						L94.493,115.118z"/>
					<path d="M97.683,116.53v-3.427h-0.572v-0.469c0.161-0.019,0.314-0.08,0.46-0.183c0.146-0.103,0.25-0.228,0.314-0.375h0.469
						v4.453H97.683z"/>
				</g>
				<g>
					<path d="M121.877,112.08h0.704l-0.696,4.45h-0.639l-0.383-2.448l-0.357,2.448h-0.642l-0.745-4.45h0.703l0.351,2.383
						l0.323-2.383h0.703l0.351,2.381L121.877,112.08z"/>
					<path d="M123.146,116.53v-4.453h1.91v0.675h-1.239v1.214h0.906v0.675h-0.906v1.214h1.239v0.675H123.146z"/>
					<path d="M125.518,116.53v-4.453h1.91v0.675h-1.239v1.214h0.906v0.675h-0.906v1.214h1.239v0.675H125.518z"/>
					<path d="M128.561,115.118v1.412h-0.671v-4.453h0.671v1.587l0.82-1.587h0.716l-0.919,1.816l1.078,2.637h-0.789l-0.705-1.808
						L128.561,115.118z"/>
					<path d="M131.189,113.334c0-0.421,0.113-0.744,0.341-0.966c0.196-0.196,0.455-0.295,0.774-0.295c0.294,0,0.544,0.11,0.751,0.33
						c0.207,0.22,0.311,0.477,0.311,0.771c0,0.303-0.067,0.596-0.203,0.878c-0.073,0.156-0.245,0.425-0.515,0.806
						c-0.074,0.104-0.183,0.266-0.327,0.486l-0.121,0.181c-0.078,0.118-0.137,0.212-0.177,0.28
						c-0.019,0.035-0.029,0.057-0.029,0.064h1.318v0.657h-2.134v-0.616c0-0.014,0.049-0.096,0.146-0.246
						c0.045-0.068,0.096-0.144,0.153-0.227l0.175-0.252c0.102-0.14,0.262-0.363,0.48-0.671c0.206-0.289,0.36-0.55,0.462-0.785
						c0.083-0.191,0.124-0.37,0.124-0.536c0-0.135-0.038-0.25-0.114-0.345c-0.083-0.099-0.189-0.149-0.319-0.149
						c-0.187,0-0.32,0.108-0.398,0.323c-0.026,0.071-0.039,0.156-0.039,0.255v0.171h-0.66V113.334z"/>
				</g>
				<g>
					<path d="M156.421,112.08h0.705l-0.696,4.45h-0.639l-0.383-2.448l-0.357,2.448h-0.642l-0.745-4.45h0.703l0.352,2.383
						l0.323-2.383h0.703l0.351,2.381L156.421,112.08z"/>
					<path d="M157.69,116.53v-4.453h1.91v0.675h-1.239v1.214h0.906v0.675h-0.906v1.214h1.239v0.675H157.69z"/>
					<path d="M160.062,116.53v-4.453h1.91v0.675h-1.239v1.214h0.906v0.675h-0.906v1.214h1.239v0.675H160.062z"/>
					<path d="M163.105,115.118v1.412h-0.671v-4.453h0.671v1.587l0.82-1.587h0.716l-0.919,1.816l1.078,2.637h-0.789l-0.704-1.808
						L163.105,115.118z"/>
					<path d="M166.767,115.891c0.308,0,0.461-0.143,0.461-0.429v-0.263c0-0.456-0.239-0.685-0.717-0.685v-0.575
						c0.258,0,0.449-0.072,0.572-0.216c0.114-0.13,0.17-0.312,0.17-0.546v-0.103c0-0.291-0.128-0.437-0.383-0.437
						c-0.142,0-0.246,0.054-0.313,0.163c-0.05,0.082-0.075,0.189-0.075,0.321v0.116h-0.657v-0.103c0-0.317,0.08-0.575,0.241-0.774
						c0.182-0.228,0.439-0.341,0.771-0.341c0.315,0,0.567,0.107,0.756,0.319c0.171,0.192,0.256,0.431,0.256,0.717v0.188
						c0,0.277-0.083,0.516-0.248,0.717c-0.071,0.085-0.154,0.157-0.249,0.216c0.199,0.111,0.353,0.281,0.462,0.508
						c0.057,0.116,0.085,0.257,0.085,0.423v0.352c0,0.329-0.112,0.599-0.337,0.81c-0.215,0.204-0.475,0.306-0.778,0.306
						c-0.296,0-0.547-0.104-0.753-0.313c-0.206-0.209-0.309-0.459-0.309-0.75v-0.11l0.639-0.05l0.014,0.156
						c0.009,0.111,0.049,0.202,0.119,0.274C166.565,115.855,166.655,115.891,166.767,115.891z"/>
				</g>
				<g>
					<path d="M190.906,112.08h0.705l-0.696,4.45h-0.639l-0.383-2.448l-0.357,2.448h-0.642l-0.745-4.45h0.703l0.352,2.383
						l0.323-2.383h0.703l0.351,2.381L190.906,112.08z"/>
					<path d="M192.175,116.53v-4.453h1.91v0.675h-1.239v1.214h0.906v0.675h-0.906v1.214h1.239v0.675H192.175z"/>
					<path d="M194.547,116.53v-4.453h1.91v0.675h-1.239v1.214h0.906v0.675h-0.906v1.214h1.239v0.675H194.547z"/>
					<path d="M197.59,115.118v1.412h-0.671v-4.453h0.671v1.587l0.82-1.587h0.716l-0.919,1.816l1.078,2.637h-0.789l-0.705-1.808
						L197.59,115.118z"/>
					<path d="M200.208,114.893l1.186-2.819h0.671v2.819h0.43v0.675h-0.43v0.959h-0.671v-0.959h-1.186V114.893z M201.394,114.893
						v-1.391l-0.554,1.391H201.394z"/>
				</g>
				<g>
					<path d="M225.55,112.08h0.705l-0.696,4.45h-0.639l-0.383-2.448l-0.357,2.448h-0.642l-0.745-4.45h0.703l0.352,2.383l0.323-2.383
						h0.703l0.351,2.381L225.55,112.08z"/>
					<path d="M226.819,116.53v-4.453h1.91v0.675h-1.239v1.214h0.906v0.675h-0.906v1.214h1.239v0.675H226.819z"/>
					<path d="M229.191,116.53v-4.453h1.91v0.675h-1.239v1.214h0.906v0.675h-0.906v1.214h1.239v0.675H229.191z"/>
					<path d="M232.234,115.118v1.412h-0.671v-4.453h0.671v1.587l0.82-1.587h0.716l-0.919,1.816l1.078,2.637h-0.789l-0.704-1.808
						L232.234,115.118z"/>
					<path d="M235.59,112.748v0.955c0.067-0.095,0.161-0.168,0.281-0.22c0.064-0.026,0.139-0.039,0.225-0.039
						c0.294,0,0.512,0.103,0.651,0.309c0.121,0.177,0.182,0.428,0.182,0.753v0.959c0,0.329-0.104,0.599-0.313,0.81
						c-0.199,0.204-0.45,0.306-0.753,0.306c-0.294,0-0.537-0.106-0.731-0.32c-0.187-0.204-0.28-0.452-0.28-0.746v-0.106l0.643-0.05
						l0.014,0.153c0.017,0.177,0.089,0.296,0.217,0.355c0.038,0.019,0.078,0.028,0.121,0.028c0.274,0,0.412-0.143,0.412-0.43v-1.09
						c0-0.13-0.048-0.238-0.143-0.323c-0.045-0.041-0.108-0.061-0.189-0.061c-0.119,0-0.207,0.046-0.264,0.139
						c-0.048,0.081-0.072,0.165-0.072,0.255v0.121h-0.671v-2.433h1.964v0.675H235.59z"/>
				</g>
				<g>
					<path d="M260.116,112.08h0.705l-0.696,4.45h-0.639l-0.383-2.448l-0.357,2.448h-0.642l-0.745-4.45h0.703l0.352,2.383
						l0.323-2.383h0.703l0.351,2.381L260.116,112.08z"/>
					<path d="M261.385,116.53v-4.453h1.91v0.675h-1.239v1.214h0.906v0.675h-0.906v1.214h1.239v0.675H261.385z"/>
					<path d="M263.757,116.53v-4.453h1.91v0.675h-1.239v1.214h0.906v0.675h-0.906v1.214h1.239v0.675H263.757z"/>
					<path d="M266.8,115.118v1.412h-0.671v-4.453h0.671v1.587l0.82-1.587h0.716l-0.919,1.816l1.078,2.637h-0.789l-0.705-1.808
						L266.8,115.118z"/>
					<path d="M270.742,113.181v-0.11c0-0.109-0.029-0.201-0.087-0.275c-0.058-0.075-0.14-0.112-0.247-0.112
						c-0.106,0-0.189,0.037-0.247,0.112c-0.058,0.074-0.087,0.166-0.087,0.275v0.888c0.154-0.138,0.323-0.206,0.508-0.206
						c0.296,0,0.518,0.103,0.664,0.309c0.13,0.18,0.195,0.43,0.195,0.749v0.764h-0.003c-0.014,0.284-0.117,0.522-0.307,0.713
						c-0.191,0.192-0.424,0.288-0.702,0.288c-0.296,0-0.54-0.105-0.731-0.316c-0.187-0.204-0.28-0.452-0.28-0.746v-2.429
						c0-0.218,0.053-0.414,0.158-0.589c0.105-0.175,0.255-0.305,0.449-0.391c0.123-0.057,0.258-0.085,0.405-0.085
						c0.294,0,0.538,0.107,0.732,0.319c0.187,0.204,0.28,0.452,0.28,0.746v0.096H270.742z M270.074,115.503
						c0,0.109,0.027,0.199,0.082,0.27c0.06,0.078,0.143,0.117,0.25,0.117c0.108,0,0.191-0.039,0.25-0.117
						c0.057-0.071,0.086-0.161,0.086-0.27v-0.824c0-0.128-0.047-0.234-0.143-0.32c-0.045-0.04-0.108-0.06-0.189-0.06
						c-0.116,0-0.205,0.046-0.264,0.138c-0.047,0.076-0.071,0.16-0.071,0.252V115.503z"/>
				</g>
				<g>
					<path d="M294.659,112.08h0.705l-0.696,4.45h-0.639l-0.383-2.448l-0.357,2.448h-0.642l-0.745-4.45h0.703l0.352,2.383
						l0.323-2.383h0.703l0.351,2.381L294.659,112.08z"/>
					<path d="M295.928,116.53v-4.453h1.91v0.675h-1.239v1.214h0.906v0.675h-0.906v1.214h1.239v0.675H295.928z"/>
					<path d="M298.3,116.53v-4.453h1.91v0.675h-1.239v1.214h0.906v0.675h-0.906v1.214h1.239v0.675H298.3z"/>
					<path d="M301.343,115.118v1.412h-0.671v-4.453h0.671v1.587l0.82-1.587h0.716l-0.919,1.816l1.078,2.637h-0.789l-0.705-1.808
						L301.343,115.118z"/>
					<path d="M305.978,112.073v0.675l-0.941,3.778h-0.659l0.941-3.778h-1.358v-0.675H305.978z"/>
				</g>
				<g>
					<path d="M329.117,112.08h0.705l-0.696,4.45h-0.639l-0.383-2.448l-0.357,2.448h-0.642l-0.745-4.45h0.703l0.352,2.383
						l0.323-2.383h0.703l0.351,2.381L329.117,112.08z"/>
					<path d="M330.386,116.529v-4.453h1.91v0.675h-1.239v1.214h0.906v0.675h-0.906v1.214h1.239v0.675H330.386z"/>
					<path d="M332.758,116.529v-4.453h1.91v0.675h-1.239v1.214h0.906v0.675h-0.906v1.214h1.239v0.675H332.758z"/>
					<path d="M335.801,115.118v1.412h-0.671v-4.453h0.671v1.587l0.82-1.587h0.716l-0.919,1.816l1.078,2.637h-0.789l-0.704-1.808
						L335.801,115.118z"/>
					<path d="M340.599,115.514c0,0.296-0.104,0.547-0.313,0.753s-0.459,0.309-0.753,0.309h-0.053c-0.296,0-0.547-0.104-0.753-0.313
						c-0.206-0.208-0.309-0.458-0.309-0.749v-0.405c0-0.272,0.091-0.51,0.273-0.714c0.078-0.087,0.169-0.16,0.273-0.217
						c-0.18-0.092-0.32-0.246-0.419-0.461c-0.05-0.111-0.075-0.251-0.075-0.419v-0.242c0-0.289,0.085-0.528,0.255-0.717
						c0.189-0.213,0.44-0.319,0.753-0.319h0.053c0.315,0,0.567,0.106,0.756,0.319c0.171,0.192,0.256,0.431,0.256,0.717v0.242
						c0,0.277-0.083,0.506-0.249,0.689c-0.073,0.081-0.155,0.145-0.245,0.191c0.199,0.111,0.353,0.281,0.462,0.508
						c0.057,0.116,0.085,0.257,0.085,0.423V115.514z M339.949,113.239c-0.004-0.305-0.101-0.496-0.288-0.574
						c-0.042-0.019-0.093-0.028-0.153-0.028c-0.116,0-0.21,0.032-0.284,0.096c-0.06,0.052-0.102,0.119-0.126,0.2
						c-0.024,0.081-0.035,0.183-0.03,0.306c0.007,0.193,0.038,0.332,0.092,0.417c0.071,0.113,0.187,0.17,0.348,0.17
						c0.161,0,0.278-0.06,0.352-0.18C339.921,113.545,339.951,113.409,339.949,113.239z M339.928,115.198
						c0-0.265-0.061-0.443-0.181-0.533c-0.057-0.042-0.136-0.064-0.238-0.064c-0.177,0-0.298,0.076-0.362,0.227
						c-0.038,0.092-0.057,0.216-0.057,0.37v0.213c0,0.147,0.045,0.265,0.135,0.355c0.076,0.076,0.17,0.116,0.284,0.121
						c0.183-0.01,0.309-0.1,0.38-0.27c0.026-0.057,0.039-0.125,0.039-0.206V115.198z"/>
				</g>
				<g>
					<path d="M363.734,112.08h0.705l-0.696,4.45h-0.639l-0.383-2.448l-0.357,2.448h-0.642l-0.745-4.45h0.703l0.352,2.383
						l0.323-2.383h0.703l0.351,2.381L363.734,112.08z"/>
					<path d="M365.003,116.529v-4.453h1.91v0.675h-1.239v1.214h0.906v0.675h-0.906v1.214h1.239v0.675H365.003z"/>
					<path d="M367.375,116.529v-4.453h1.91v0.675h-1.239v1.214h0.906v0.675h-0.906v1.214h1.239v0.675H367.375z"/>
					<path d="M370.418,115.118v1.412h-0.671v-4.453h0.671v1.587l0.82-1.587h0.716l-0.919,1.816l1.078,2.637h-0.789l-0.705-1.808
						L370.418,115.118z"/>
					<path d="M374.047,112.02c0.294,0,0.538,0.106,0.732,0.319c0.187,0.204,0.28,0.452,0.28,0.746v2.429
						c0,0.296-0.096,0.547-0.29,0.753c-0.193,0.206-0.434,0.309-0.723,0.309c-0.296,0-0.54-0.105-0.732-0.316
						c-0.187-0.204-0.28-0.452-0.28-0.746v-0.096h0.696v0.11c0,0.109,0.029,0.2,0.087,0.273c0.058,0.073,0.141,0.11,0.247,0.11
						c0.107,0,0.189-0.037,0.247-0.11c0.058-0.073,0.087-0.165,0.087-0.273v-0.891c-0.156,0.14-0.325,0.209-0.508,0.209
						c-0.293,0-0.514-0.103-0.66-0.309c-0.13-0.18-0.195-0.431-0.195-0.753v-0.763h0.003c0.009-0.206,0.068-0.392,0.176-0.556
						c0.108-0.164,0.254-0.287,0.438-0.367C373.774,112.045,373.906,112.02,374.047,112.02z M374.399,113.092
						c0-0.109-0.029-0.201-0.087-0.275c-0.058-0.074-0.14-0.112-0.247-0.112c-0.106,0-0.189,0.038-0.247,0.112
						c-0.058,0.075-0.087,0.167-0.087,0.275v0.824c0,0.13,0.047,0.238,0.142,0.323c0.042,0.04,0.105,0.061,0.189,0.061
						c0.17,0,0.277-0.09,0.319-0.27c0.012-0.054,0.018-0.096,0.018-0.124V113.092z"/>
				</g>
				<g>
					<path d="M397.306,112.08h0.704l-0.696,4.45h-0.639l-0.383-2.448l-0.357,2.448h-0.642l-0.745-4.45h0.703l0.352,2.383
						l0.323-2.383h0.703l0.351,2.381L397.306,112.08z"/>
					<path d="M398.575,116.53v-4.453h1.91v0.675h-1.239v1.214h0.906v0.675h-0.906v1.214h1.239v0.675H398.575z"/>
					<path d="M400.947,116.53v-4.453h1.91v0.675h-1.239v1.214h0.906v0.675h-0.906v1.214h1.239v0.675H400.947z"/>
					<path d="M403.99,115.118v1.412h-0.671v-4.453h0.671v1.587l0.82-1.587h0.716l-0.919,1.816l1.078,2.637h-0.789l-0.705-1.808
						L403.99,115.118z"/>
					<path d="M407.18,116.53v-3.427h-0.572v-0.469c0.161-0.019,0.314-0.08,0.46-0.183c0.146-0.103,0.25-0.228,0.314-0.375h0.469
						v4.453H407.18z"/>
					<path d="M410.567,115.514c0,0.296-0.104,0.547-0.313,0.753c-0.208,0.206-0.458,0.309-0.749,0.309
						c-0.296,0-0.548-0.104-0.755-0.311c-0.207-0.207-0.311-0.457-0.311-0.751v-2.429c0-0.296,0.104-0.547,0.313-0.754
						c0.208-0.207,0.459-0.311,0.753-0.311c0.296,0,0.547,0.104,0.752,0.313c0.206,0.208,0.309,0.459,0.309,0.753V115.514z
						 M409.871,113.071c0-0.106-0.038-0.197-0.114-0.273c-0.076-0.076-0.167-0.113-0.273-0.113c-0.106,0-0.197,0.038-0.271,0.113
						c-0.075,0.076-0.112,0.167-0.112,0.273v2.433c0,0.106,0.038,0.198,0.112,0.273c0.074,0.076,0.165,0.114,0.271,0.114
						c0.106,0,0.198-0.038,0.273-0.114c0.076-0.076,0.114-0.167,0.114-0.273V113.071z"/>
				</g>
			</g>
			<g style="opacity:0.4;">
				<path style="fill:#FFFFFF;" d="M85.595,96.415l-2.156-6.213h1.772l1.193,3.836l1.185-3.836h1.781l-2.165,6.213v4.475h-1.61
					V96.415z"/>
				<path style="fill:#FFFFFF;" d="M90.658,100.89V90.203h4.585v1.619h-2.975v2.915h2.173v1.619h-2.173v2.915h2.975v1.619H90.658z"
					/>
				<path style="fill:#FFFFFF;" d="M98.419,98.436l-0.391,2.455h-1.677l1.815-10.679h2.216l1.79,10.679h-1.694l-0.377-2.455H98.419z
					 M99.265,92.657l-0.597,4.21h1.193L99.265,92.657z"/>
				<path style="fill:#FFFFFF;" d="M106.066,90.211c0.897,0,1.557,0.248,1.977,0.742c0.37,0.432,0.554,1.034,0.554,1.807v1.551
					c0,0.756-0.287,1.395-0.861,1.917l1.193,4.662h-1.742l-0.977-4.023c-0.046,0-0.094,0-0.145,0h-0.929v4.023h-1.61V90.211H106.066
					z M107.029,92.785c0-0.619-0.307-0.929-0.92-0.929h-0.972v3.417h0.972c0.256,0,0.473-0.091,0.652-0.272
					c0.179-0.182,0.268-0.4,0.268-0.656V92.785z"/>
			</g>
		</g>
		<g>
			<path style="fill:#407BFF;" d="M250.523,182.687H115.04c-1.315,0-2.381-1.066-2.381-2.381v-14.237
				c0-1.315,1.066-2.381,2.381-2.381h135.483c1.315,0,2.381,1.066,2.381,2.381v14.237
				C252.904,181.621,251.838,182.687,250.523,182.687z"/>
			<path style="opacity:0.2;fill:#FFFFFF;enable-background:new    ;" d="M250.523,182.687H115.04c-1.315,0-2.381-1.066-2.381-2.381
				v-14.237c0-1.315,1.066-2.381,2.381-2.381h135.483c1.315,0,2.381,1.066,2.381,2.381v14.237
				C252.904,181.621,251.838,182.687,250.523,182.687z"/>
			<path style="opacity:0.7;fill:#FFFFFF;enable-background:new    ;" d="M130.227,168.807h-12.999
				c-0.721,0-1.305-0.584-1.305-1.305l0,0c0-0.721,0.584-1.305,1.305-1.305h12.999c0.721,0,1.305,0.584,1.305,1.305l0,0
				C131.532,168.223,130.948,168.807,130.227,168.807z"/>
			<path style="opacity:0.7;fill:#FFFFFF;enable-background:new    ;" d="M170.227,173.961h-52.999
				c-0.721,0-1.305-0.584-1.305-1.305l0,0c0-0.721,0.584-1.305,1.305-1.305h52.999c0.721,0,1.305,0.584,1.305,1.305l0,0
				C171.532,173.376,170.948,173.961,170.227,173.961z"/>
			<path style="opacity:0.7;fill:#FFFFFF;enable-background:new    ;" d="M163.227,178.961h-45.999
				c-0.721,0-1.305-0.584-1.305-1.305l0,0c0-0.721,0.584-1.305,1.305-1.305h45.999c0.721,0,1.305,0.584,1.305,1.305l0,0
				C164.532,178.376,163.948,178.961,163.227,178.961z"/>
		</g>
		<g>
			<path style="fill:#FFFFFF;" d="M338.674,204.962H203.191c-1.315,0-2.381-1.066-2.381-2.381v-14.237
				c0-1.315,1.066-2.381,2.381-2.381h135.483c1.315,0,2.381,1.066,2.381,2.381v14.237
				C341.055,203.896,339.989,204.962,338.674,204.962z"/>
			<path style="opacity:0.3;enable-background:new    ;" d="M218.378,191.082h-12.999c-0.721,0-1.305-0.584-1.305-1.305l0,0
				c0-0.721,0.584-1.305,1.305-1.305h12.999c0.721,0,1.305,0.584,1.305,1.305l0,0C219.683,190.498,219.099,191.082,218.378,191.082z
				"/>
			<path style="opacity:0.3;enable-background:new    ;" d="M258.378,196.236h-52.999c-0.721,0-1.305-0.584-1.305-1.305l0,0
				c0-0.721,0.584-1.305,1.305-1.305h52.999c0.721,0,1.305,0.584,1.305,1.305l0,0C259.683,195.652,259.099,196.236,258.378,196.236z
				"/>
			<path style="opacity:0.3;enable-background:new    ;" d="M251.378,201.236h-45.999c-0.721,0-1.305-0.584-1.305-1.305l0,0
				c0-0.721,0.584-1.305,1.305-1.305h45.999c0.721,0,1.305,0.584,1.305,1.305l0,0C252.683,200.652,252.099,201.236,251.378,201.236z
				"/>
		</g>
	</g>
</g>
<g id="Sand_clock">
	<g>
		<g>
			<path style="fill:#407BFF;" d="M256.536,390.874c-7.121-5.484-7.385-14.033,0-18.78c7.385-4.747,11.341-22.945,11.341-22.945h-19
				h-7.373h-19c0,0,3.956,18.198,11.341,22.945c7.385,4.747,7.121,13.296,0,18.78c-7.121,5.484-11.341,23.791-11.341,23.791h19
				h7.373h19C267.876,414.665,263.657,396.358,256.536,390.874z"/>
			<path style="opacity:0.7;fill:#FFFFFF;enable-background:new    ;" d="M256.536,390.874c-7.121-5.484-7.385-14.033,0-18.78
				c7.385-4.747,11.341-22.945,11.341-22.945h-19h-7.373h-19c0,0,3.956,18.198,11.341,22.945c7.385,4.747,7.121,13.296,0,18.78
				c-7.121,5.484-11.341,23.791-11.341,23.791h19h7.373h19C267.876,414.665,263.657,396.358,256.536,390.874z"/>
			<path style="fill:#407BFF;" d="M267.913,352.05h-45.447c-1.602,0-2.901-1.299-2.901-2.901l0,0c0-1.602,1.299-2.901,2.901-2.901
				h45.447c1.602,0,2.901,1.299,2.901,2.901l0,0C270.814,350.751,269.516,352.05,267.913,352.05z"/>
			<path style="fill:#407BFF;" d="M267.913,418.05h-45.447c-1.602,0-2.901-1.299-2.901-2.901l0,0c0-1.602,1.299-2.901,2.901-2.901
				h45.447c1.602,0,2.901,1.299,2.901,2.901l0,0C270.814,416.751,269.516,418.05,267.913,418.05z"/>
		</g>
		<path style="fill:#407BFF;" d="M225.813,411.259H263c0,0-10.256-5.697-16.352-7.605v-14.295c0-6.625,2.648-12.94,7.241-17.715
			c2.514-2.614,4.099-5.352,4.099-5.352l-26.901-1.319c0,0,1.899,3.032,4.702,5.96c4.464,4.664,6.903,10.907,6.903,17.363v14.844
			C236.592,403.962,225.813,411.259,225.813,411.259z"/>
		<path style="opacity:0.4;fill:#FFFFFF;enable-background:new    ;" d="M225.813,411.259H263c0,0-10.256-5.697-16.352-7.605
			v-14.295c0-6.625,2.648-12.94,7.241-17.715c2.514-2.614,4.099-5.352,4.099-5.352l-26.901-1.319c0,0,1.899,3.032,4.702,5.96
			c4.464,4.664,6.903,10.907,6.903,17.363v14.844C236.592,403.962,225.813,411.259,225.813,411.259z"/>
	</g>
</g>
<g id="Character_2">
	<g>
		<g>
			<path style="fill:#407BFF;" d="M390.57,170.898l-134.096-19.332c-1.302-0.188-2.205-1.395-2.017-2.697l2.031-14.091
				c0.188-1.302,1.395-2.205,2.697-2.017l134.096,19.332c1.302,0.188,2.205,1.395,2.017,2.697l-2.031,14.091
				C393.079,170.182,391.872,171.085,390.57,170.898z"/>
			<path style="opacity:0.1;enable-background:new    ;" d="M390.57,170.898l-134.096-19.332c-1.302-0.188-2.205-1.395-2.017-2.697
				l2.031-14.091c0.188-1.302,1.395-2.205,2.697-2.017l134.096,19.332c1.302,0.188,2.205,1.395,2.017,2.697l-2.031,14.091
				C393.079,170.182,391.872,171.085,390.57,170.898z"/>
			<path style="opacity:0.7;fill:#FFFFFF;enable-background:new    ;" d="M273.486,139.995l-12.866-1.855
				c-0.713-0.103-1.208-0.764-1.106-1.478l0,0c0.103-0.713,0.765-1.208,1.478-1.105l12.866,1.855
				c0.713,0.103,1.208,0.765,1.106,1.478l0,0C274.861,139.603,274.199,140.098,273.486,139.995z"/>
			<path style="opacity:0.7;fill:#FFFFFF;enable-background:new    ;" d="M312.341,150.804l-52.457-7.563
				c-0.713-0.103-1.208-0.765-1.106-1.478l0,0c0.103-0.713,0.765-1.208,1.478-1.106l52.457,7.562
				c0.713,0.103,1.208,0.765,1.106,1.478l0,0C313.716,150.411,313.055,150.906,312.341,150.804z"/>
			<path style="opacity:0.7;fill:#FFFFFF;enable-background:new    ;" d="M304.699,154.754l-45.529-6.564
				c-0.714-0.103-1.208-0.765-1.106-1.478l0,0c0.103-0.714,0.765-1.209,1.478-1.106l45.529,6.564
				c0.713,0.103,1.208,0.765,1.106,1.478l0,0C306.074,154.361,305.413,154.856,304.699,154.754z"/>
		</g>
		<g id="_x3C_Group_x3E__8_">
			<polygon style="fill:#E4897B;" points="360.33,410.09 351.661,410.998 351.222,405.974 350.036,392.301 358.706,391.382 
				360.02,406.487 			"/>
			<polygon style="fill:#E4897B;" points="403.604,408.988 395.202,408.988 395.127,407.086 395.116,406.85 394.689,394.664 
				394.678,394.418 394.507,389.746 402.92,389.746 			"/>
			<polygon style="opacity:0.2;enable-background:new    ;" points="358.706,391.382 360.02,406.487 351.222,405.974 
				350.036,392.301 			"/>
			<polygon style="opacity:0.2;enable-background:new    ;" points="403.551,407.919 403.54,407.919 395.127,406.85 395.116,406.85 
				394.678,395.091 394.689,395.091 403.113,395.765 403.54,407.551 			"/>
			<path style="fill:#263238;" d="M394.037,408.483h10.209c0.344,0.002,0.641,0.241,0.716,0.577l1.657,7.483
				c0.142,0.67-0.286,1.328-0.957,1.47c-0.09,0.019-0.181,0.028-0.273,0.027c-3.303-0.053-5.709-0.257-9.856-0.257
				c-2.555,0-10.262,0.267-13.79,0.267s-3.987-3.485-2.544-3.806c6.478-1.411,11.353-3.367,13.427-5.227
				C393.01,408.664,393.515,408.473,394.037,408.483z"/>
			<path style="fill:#263238;" d="M350.741,408.215h10.209c0.344,0.002,0.641,0.241,0.716,0.577l1.657,7.483
				c0.142,0.67-0.286,1.328-0.957,1.47c-0.09,0.019-0.181,0.028-0.273,0.027c-3.303-0.053-5.709-0.257-9.856-0.257
				c-2.555,0-10.263,0.267-13.79,0.267c-3.528,0-3.987-3.485-2.544-3.806c6.478-1.411,11.353-3.367,13.427-5.227
				C349.715,408.397,350.22,408.206,350.741,408.215z"/>
			<path style="fill:#263238;" d="M349.24,404.712h12.326c0,0-1.005-91.773,12.326-127.607c0.941,11.845,1.999,24.136,3.036,34.377
				c0.652,6.339,1.294,8.785,1.903,12.932c3.88,26.725,13.673,81.367,13.673,81.367h12.176c0,0-1.443-51.885-2.886-78.15
				c-1.593-28.511-2.277-88.182-2.341-93.527h-44.599C350.608,256.553,339.725,332.019,349.24,404.712z"/>
			<path style="opacity:0.2;fill:#FFFFFF;enable-background:new    ;" d="M349.24,404.712h12.326c0,0-1.005-91.773,12.326-127.607
				c0.941,11.845,1.999,24.136,3.036,34.377c0.652,6.339,1.294,8.785,1.903,12.932c3.88,26.725,13.673,81.367,13.673,81.367h12.176
				c0,0-1.443-51.885-2.886-78.15c-1.593-28.511-2.277-88.182-2.341-93.527h-44.599C350.608,256.553,339.725,332.019,349.24,404.712
				z"/>
			<g>
				<path style="fill:#407BFF;" d="M404.679,163.338c6.171,3.96,20.401,33.923,14.63,39.924
					c-10.058,10.458-20.961-18.649-20.961-18.649L404.679,163.338z"/>
				<path style="opacity:0.3;enable-background:new    ;" d="M419.313,203.266c-2.341,2.437-4.736,2.726-7.023,1.732
					c-7.526-3.271-13.94-20.386-13.94-20.386l3.624-12.187l2.705-9.087C410.846,167.293,425.075,197.258,419.313,203.266z"/>
			</g>
			<path style="opacity:0.2;enable-background:new    ;" d="M412.29,204.997c-7.526-3.271-13.94-20.386-13.94-20.386l3.624-12.187
				C401.974,172.425,413.957,186.728,412.29,204.997z"/>
			<g>
				<path style="fill:#E4897B;" d="M371.047,142.893c0.104,0.408,0.221,0.807,0.362,1.189c0.824,2.308,2.313,4.208,4.158,5.54
					c0.482,0.353,0.993,0.667,1.521,0.94c2.792,1.438,6.108,1.706,9.104,0.403c1.226-0.519,2.413-1.315,3.475-2.404
					c4.211-4.253,4.099-9.162,4.573-17.473c0.129-1.789-0.153-3.582-0.849-5.229c-2.411-5.807-9.08-8.552-14.877-6.139
					C370.362,123.044,369.245,135.41,371.047,142.893z"/>
				<path style="opacity:0.2;enable-background:new    ;" d="M375.568,149.621c0.482,0.353,0.993,0.667,1.521,0.94
					c2.792,1.438,6.108,1.706,9.104,0.403c-0.585-1.606-1.485-2.821-1.485-2.821S379.742,147.379,375.568,149.621z"/>
				<path style="fill:#E4897B;" d="M392.294,160.402c-4.094,3.72-14.125,2.345-14.125,2.345s-6.261-1.714-4.946-3.67
					c3.688-0.609,5.474-2.33,6.211-4.533c0.427-1.283,0.492-2.726,0.374-4.212c-0.054-0.78-0.171-1.571-0.31-2.352l12.4-9.183
					C390.274,144.858,388.285,156.008,392.294,160.402z"/>
				<path style="fill:#263238;" d="M375.568,135.325l-1.792,0.678l0.896-3.665c0,0-2.628-3.947,0-7.471c0,0-7.243-2.199-3.152-6.023
					c1.522-1.423,3.411,0,8.405-2.178c2.711-1.182,11.19-1.274,11.612,2.178c0,0,6.108-0.038,6.767,10.393
					c0.659,10.432-6.468,16.439-6.468,16.439s-7.374,1.747-10.955-1.214C377.299,141.501,375.568,135.325,375.568,135.325z"/>
				<path style="fill:#E4897B;" d="M380.291,135.92c-0.497,1.808-1.492,3.136-2.767,3.693c-1.693,0.718-2.804-1.667-2.56-4.166
					c0.232-2.214,1.378-5.332,3.19-4.921C379.967,130.938,380.881,133.684,380.291,135.92z"/>
			</g>
			<path style="opacity:0.2;enable-background:new    ;" d="M373.891,277.057c0.941,11.845,1.999,24.16,3.036,34.401
				c1.518-14.785,3.378-25.325,3.378-25.325s1.743-1.432,6.532-9.076c4.789-7.654,0-21.915,0-21.915
				C386.987,268.398,373.891,277.057,373.891,277.057z"/>
			<polygon style="fill:#407BFF;" points="347.858,401.238 348.459,404.712 363.024,404.712 363.024,401.505 			"/>
			<polygon style="fill:#407BFF;" points="391.105,402.574 392.503,405.781 404.716,405.781 405.518,402.574 			"/>
			<g>
				<polygon style="fill:#407BFF;" points="399.852,241.417 399.852,247.972 353.122,244.694 353.122,238.882 				"/>
				<polygon style="opacity:0.2;fill:#FFFFFF;enable-background:new    ;" points="399.852,241.417 399.852,247.972 
					353.122,244.694 353.122,238.882 				"/>
			</g>
			<path style="fill:#407BFF;" d="M374.931,158.214c0,0,5.119-4.488,14.034-2.283c8.915,2.204,7.788,8.458,7.788,8.458
				L374.931,158.214z"/>
			<path style="fill:#E4897B;" d="M310.621,162.97l-7.753-5.368c0,0-2.115-2.521-3.806-3.508
				c-1.692-0.987-12.123-2.678-12.687-1.974c-0.564,0.705-0.564,5.978,0.564,7.218c1.128,1.24,10.009,2.509,10.432,2.509
				c0.423,0,1.885-0.312,1.885-0.312l7.701,6.221L310.621,162.97z"/>
			<polygon style="fill:#407BFF;" points="309.634,162.082 304.841,158.126 300.048,162.995 304.841,168.274 			"/>
			<path style="opacity:0.2;fill:#FFFFFF;enable-background:new    ;" d="M374.931,158.214c0,0,5.119-4.488,14.034-2.283
				c8.915,2.204,7.788,8.458,7.788,8.458L374.931,158.214z"/>
			<polygon style="opacity:0.2;fill:#FFFFFF;enable-background:new    ;" points="309.634,162.082 304.841,158.126 300.048,162.995 
				304.841,168.274 			"/>
			<g>
				<path style="fill:#407BFF;" d="M350.843,236.003c-0.182,2.48,1.721,4.618,4.201,4.736l43.851,2.138
					c1.411,0.075,2.598-1.037,2.609-2.459c0.278-26.693,9.418-72.248,3.175-77.08c-6.457-4.992-38.132-7.611-38.132-7.611
					c-1.411,3.282-2.705,6.885-3.881,10.701c-0.139,0.46-0.289,0.919-0.417,1.39c-1.818,6.008-3.346,12.486-4.661,19.05
					c-0.096,0.438-0.182,0.887-0.267,1.326C353.302,208.857,351.484,226.991,350.843,236.003z"/>
				<path style="opacity:0.3;enable-background:new    ;" d="M401.503,240.418c-0.011,1.422-1.197,2.534-2.608,2.459l-43.851-2.138
					c-2.48-0.118-4.383-2.256-4.201-4.736c0.641-9.012,2.459-27.146,6.478-47.81c0.085-0.438,0.171-0.887,0.267-1.326
					c0.427-2.149,0.887-4.287,1.368-6.404c0.973-4.351,2.074-8.606,3.293-12.646c0.128-0.47,0.278-0.93,0.417-1.39
					c0.15-0.481,0.299-0.962,0.449-1.432c1.058-3.282,2.202-6.404,3.431-9.268c0,0,31.675,2.619,38.132,7.611
					C410.921,168.17,401.781,213.725,401.503,240.418z"/>
			</g>
			<path style="opacity:0.2;enable-background:new    ;" d="M358.956,180.464c0.973-4.351,2.074-8.606,3.293-12.646
				c0.128-0.47,0.278-0.93,0.417-1.39c0.15-0.481,0.299-0.962,0.449-1.432l2.501-0.609
				C365.616,164.385,366.418,174.092,358.956,180.464z"/>
			<g>
				<path style="fill:#407BFF;" d="M366.547,155.726c5.31-0.448-5.896,17.762-5.896,17.762s-25.079,11.563-32.691,11.779
					c-5.975,0.169-18.897-11.431-24.18-16.43c-1.28-1.211-1.279-3.242-0.005-4.46l2.971-2.84c1.028-0.983,2.592-1.135,3.79-0.368
					c4.431,2.84,14.786,9.294,17.424,9.327C331.343,170.541,358.332,156.419,366.547,155.726z"/>
				<path style="opacity:0.3;enable-background:new    ;" d="M366.547,155.726c5.31-0.448-5.896,17.762-5.896,17.762
					s-25.079,11.563-32.691,11.779c-5.975,0.169-18.897-11.431-24.18-16.43c-1.28-1.211-1.279-3.242-0.005-4.46l2.971-2.84
					c1.028-0.983,2.592-1.135,3.79-0.368c4.431,2.84,14.786,9.294,17.424,9.327C331.343,170.541,358.332,156.419,366.547,155.726z"
					/>
			</g>
		</g>
	</g>
</g>
<g id="Character_1">
	<g>
		<path style="fill:#263238;" d="M81.916,157.512c0,0,2.899-5.661,12.771-3.648c9.871,2.013,13.771,8.388,13.016,16.081
			c-0.755,7.693-3.174,12.088-1.602,15.743c0.784,1.824,5.392,0.503,5.392,0.503s-2.155,2.642-9.882,3.704
			c-8.201,1.128-19.419,3.344-24.161-3.076C72.709,180.4,81.916,157.512,81.916,157.512z"/>
		<polygon style="fill:#E4897B;" points="139.192,409.099 133.176,410.161 130.708,401.957 128.456,394.428 135.394,392.005 
			137.408,401.054 		"/>
		<polygon style="opacity:0.2;enable-background:new    ;" points="137.441,401.24 130.737,402.122 128.471,394.51 135.401,392.046 
					"/>
		<polygon style="fill:#E4897B;" points="99.024,411.872 92.914,411.872 91.91,403.267 91.003,395.412 98.256,394.207 
			98.666,403.555 		"/>
		<polygon style="opacity:0.2;enable-background:new    ;" points="98.666,403.634 91.91,403.337 91.003,395.447 98.256,394.225 		
			"/>
		<g>
			<g>
				<path style="fill:#263238;" d="M138.008,396.466l-9.891,1.743c-9.981-24.868-17.081-55.625-22.095-72.851
					c-2.701-9.295-4.954-17.56-6.571-24.895l0.303,27.072v70.982h-9.748C65.573,282.142,82.889,245.62,82.889,245.62l29.23-4.867
					c1.111,4.363,1.951,11.5,2.448,16.423l1.319,9.697l11.426,59.019L138.008,396.466z"/>
			</g>
			<g style="opacity:0.2;enable-background:new    ;">
				<path d="M138.008,396.466l-9.891,1.743c-9.981-24.868-17.081-55.625-22.095-72.851c-2.701-9.295-4.954-17.56-6.571-24.895
					l0.303,27.072v70.982h-9.748C65.573,282.142,82.889,245.62,82.889,245.62l29.23-4.867c1.111,4.363,1.951,11.5,2.448,16.423
					l1.319,9.697l11.426,59.019L138.008,396.466z"/>
			</g>
		</g>
		<path style="fill:#EEC1BB;" d="M169.015,187.881l12.659-5.673c0,0,1.235-2.327,2.384-2.673c1.149-0.347,8.35-0.274,8.934,0.527
			c0.583,0.801-0.255,6.329-1.69,6.86c-1.435,0.531-7.65-0.426-8.203-0.748l-14.44,8.127L169.015,187.881z"/>
		<path style="opacity:0.2;enable-background:new    ;" d="M106.022,325.358c-2.701-9.295-4.805-17.56-6.422-24.895
			c0,0,0.162-14.254,1.888-25.961C101.487,274.503,105.769,307.988,106.022,325.358z"/>
		<g>
			<path style="fill:#407BFF;" d="M74.689,290.472L50.833,295.4c-0.571,0.118-0.915,0.702-0.743,1.259l4.772,15.368
				c0.149,0.48,0.635,0.771,1.128,0.676l23.723-4.558c0.572-0.11,0.925-0.689,0.76-1.248l-4.638-15.737
				C75.69,290.667,75.192,290.368,74.689,290.472z"/>
			<path style="opacity:0.6;fill:#FFFFFF;" d="M74.689,290.472L50.833,295.4c-0.571,0.118-0.915,0.702-0.743,1.259l4.772,15.368
				c0.149,0.48,0.635,0.771,1.128,0.676l23.723-4.558c0.572-0.11,0.925-0.689,0.76-1.248l-4.638-15.737
				C75.69,290.667,75.192,290.368,74.689,290.472z"/>
			<g>
				<path style="fill:#407BFF;" d="M74.251,291.06l-23.856,4.927c-0.571,0.118-0.915,0.702-0.743,1.259l4.772,15.368
					c0.149,0.48,0.635,0.771,1.128,0.676l23.723-4.558c0.572-0.11,0.925-0.689,0.76-1.248l-4.638-15.737
					C75.252,291.255,74.754,290.956,74.251,291.06z"/>
				<path style="opacity:0.7;fill:#FFFFFF;" d="M74.251,291.06l-23.856,4.927c-0.571,0.118-0.915,0.702-0.743,1.259l4.772,15.368
					c0.149,0.48,0.635,0.771,1.128,0.676l23.723-4.558c0.572-0.11,0.925-0.689,0.76-1.248l-4.638-15.737
					C75.252,291.255,74.754,290.956,74.251,291.06z"/>
			</g>
			<path style="opacity:0.2;enable-background:new    ;" d="M65.356,304.406c-1.28,0.289-2.558-0.518-2.846-1.799
				c-0.29-1.288,0.517-2.565,1.797-2.854c1.288-0.29,2.565,0.517,2.855,1.805c0.007,0.03,0.014,0.06,0.013,0.091
				c-1.039,0.422-1.661,1.517-1.446,2.642C65.608,304.341,65.483,304.378,65.356,304.406z"/>
		</g>
		<path style="fill:#EEC1BB;" d="M62.491,274.417l3.417,13.445c0,0,2.08,1.616,2.225,2.807c0.145,1.191-1.163,8.274-2.052,8.711
			c-0.889,0.438-6.191-1.337-6.468-2.842c-0.277-1.505,1.732-7.464,2.144-7.953l-5.53-15.619L62.491,274.417z"/>
		<g>
			<path style="fill:#263238;" d="M112.824,238.949c1.192-21.002,0.659-32.546,0.117-38.318c-0.596-6.152-1.545-6.377-1.545-6.377
				s-6.666-0.65-12.465-0.605c-4.489,0.153-8.97,0.623-13.387,1.409c-4.191,0.696-8.319,1.698-12.375,2.99
				c0.677,1.933,1.292,3.767,1.861,5.492c0.759,2.276,1.436,4.39,2.05,6.359c1.147,3.686,2.042,6.874,2.755,9.729
				c2.231,8.834,2.701,14.489,3.17,21.896c0,0-7.337,19.172-8.768,33.242c0,0,19.636,4.128,27.374,3.238
				c8.636-0.993,17.221-4.907,17.221-4.907L112.824,238.949z"/>
			<path style="opacity:0.1;fill:#FFFFFF;enable-background:new    ;" d="M112.824,238.949c1.192-21.002,0.659-32.546,0.117-38.318
				c-0.596-6.152-1.545-6.377-1.545-6.377s-6.666-0.65-12.465-0.605c-4.489,0.153-8.97,0.623-13.387,1.409
				c-4.191,0.696-8.319,1.698-12.375,2.99c0.677,1.933,1.292,3.767,1.861,5.492c0.759,2.276,1.436,4.39,2.05,6.359
				c1.147,3.686,2.042,6.874,2.755,9.729c2.231,8.834,2.701,14.489,3.17,21.896c0,0-7.337,19.172-8.768,33.242
				c0,0,19.636,4.128,27.374,3.238c8.636-0.993,17.221-4.907,17.221-4.907L112.824,238.949z"/>
		</g>
		<path style="fill:#EEC1BB;" d="M98.593,194.928c-0.263-0.144-0.576-0.271-0.907-0.389c-0.688-0.543-1.523-1.851-1.483-5.032
			c0.014-1.036,0.113-2.262,0.345-3.724l-8.844-1.651c0,0,3.016,5.952,0.499,10.372c-0.865,0.385-1.382,0.929-1.288,1.649
			c0.662,5.112,11.648,10.051,11.648,10.051S103.928,197.858,98.593,194.928z"/>
		<path style="opacity:0.2;enable-background:new    ;" d="M96.548,185.784c-0.232,1.461-0.331,2.688-0.345,3.724
			c-5.974,0-8.499-5.375-8.499-5.375L96.548,185.784z"/>
		<g>
			<path style="fill:#EEC1BB;" d="M91.658,161.053c7.688-0.421,10.389,3.559,11.386,11.452c1.246,9.863-0.564,17.018-10.293,15.429
				C79.538,185.777,78.89,161.752,91.658,161.053z"/>
			<path style="fill:#D4827D;" d="M98.051,172.347c0,0,1.175,1.95,2.412,3.066c0,0-0.601,1.082-1.979,0.981L98.051,172.347z"/>
			<g>
				<path style="fill:#263238;" d="M93.31,171.976c0.049,0.631-0.252,1.169-0.672,1.202c-0.42,0.033-0.801-0.452-0.851-1.082
					c-0.049-0.631,0.251-1.169,0.672-1.202C92.88,170.861,93.261,171.346,93.31,171.976z"/>
				<path style="fill:#263238;" d="M92.286,170.938l1.33-0.645C93.616,170.293,93.023,171.5,92.286,170.938z"/>
			</g>
			<g>
				<path style="fill:#263238;" d="M101.141,171.231c0.049,0.631-0.251,1.169-0.672,1.202c-0.421,0.033-0.801-0.452-0.851-1.083
					c-0.049-0.631,0.252-1.169,0.672-1.202C100.711,170.116,101.092,170.601,101.141,171.231z"/>
				<path style="fill:#263238;" d="M100.117,170.193l1.33-0.645C101.447,169.548,100.854,170.755,100.117,170.193z"/>
			</g>
			
				<path style="fill:none;stroke:#263238;stroke-width:0.6862;stroke-linecap:round;stroke-linejoin:round;stroke-miterlimit:10;" d="
				M92.942,166.671c0,0-2.176-0.162-3.271,1.345"/>
			
				<path style="fill:none;stroke:#263238;stroke-width:0.6862;stroke-linecap:round;stroke-linejoin:round;stroke-miterlimit:10;" d="
				M98.513,166.04c0,0,1.33-0.577,3.099,0.464"/>
			<path style="fill:#263238;" d="M83.965,174.471c0,0,3.249-6.514,2.437-11.361c0,0,14.895-7.059,16.494,8.365
				c0,0,0.736-13.813-12.497-13.395c-13.212,0.417-12.118,19.751-4.977,25.138C85.423,183.218,81.958,178.544,83.965,174.471z"/>
			<path style="fill:#EEC1BB;" d="M85.31,176.026c-0.119-1.235-1.511-3.26-3.8-2.883c-2.368,0.39-3.236,5.344,2.755,6.195
				C85.125,179.46,85.559,178.603,85.31,176.026z"/>
			
				<path style="fill:none;stroke:#263238;stroke-width:0.6862;stroke-linecap:round;stroke-linejoin:round;stroke-miterlimit:10;" d="
				M92.481,179.138c0,0,1.789,1.908,4.412,1.788"/>
			<path style="fill:#263238;" d="M89.086,161.023c0,0,1.433,5.502-6.202,12.191c-7.635,6.689-3.421,16.862,0.604,17.949
				c0,0-7.038-0.914-10.32-5.097c-4.748-6.051,1.2-9.592,1.955-15.174c0.755-5.581-1.761-9.355,2.264-13.38
				C81.413,153.487,90.294,154.952,89.086,161.023z"/>
			<path style="fill:none;stroke:#263238;stroke-width:0.5;stroke-linecap:round;stroke-linejoin:round;stroke-miterlimit:10;" d="
				M89.198,160.154c0,0,3.819,9.623-10.143,15"/>
		</g>
		<path style="fill:#407BFF;" d="M81.255,195.884c0,0,11.4,18.469,11.345,33.729c-0.055,15.26-15.665,27.774-15.665,27.774
			l3.273-17.797l-7.039-41.541L81.255,195.884z"/>
		<path style="fill:#407BFF;" d="M107.472,193.647c0,0-2.473,26.933-0.775,35.966c1.698,9.033,10.189,26.612,10.189,26.612
			l-3.019-18.982c0,0,2.177-26.842-1.951-42.988L107.472,193.647z"/>
		<path style="fill:#407BFF;" d="M111.915,194.254c0,0,27.05,3.51,30.979,3.51c3.929,0,34.118-13.974,34.118-13.974l3.907,4.365
			c0,0-25.794,19.311-35.606,20.875c-9.811,1.564-33.398,1.313-33.398,1.313V194.254z"/>
		<path style="fill:#407BFF;" d="M73.169,198.048c-5.341,1.226-21.693,43.325-21.693,49.571c0,6.246,6.541,37.442,6.541,37.442
			l8.145-1.908c0,0-4.277-32.724-2.767-35.534c1.51-2.81,15.252-32.496,15.252-32.496s-0.401-5.786-1.71-11.069
			S73.169,198.048,73.169,198.048z"/>
		<path style="fill:#263238;" d="M131.265,406.167c0.027-0.711,8.757-0.023,8.757-0.023s5.294,5.548,10.499,6.855
			c5.204,1.307,2.239,4.397-3.598,4.31c-5.837-0.087-10.291-0.153-14.438-0.215C128.338,417.031,130.982,413.537,131.265,406.167z"
			/>
		<g>
			<path style="fill:#407BFF;" d="M143.948,408.377c-1.168-0.224-2.584-0.899-2.966-1.089c-0.026-0.013-0.048-0.029-0.067-0.05l0,0
				l0,0c-0.019-0.021-0.035-0.046-0.046-0.073l0,0c0-0.001,0-0.001,0-0.001c-0.007-0.019-0.012-0.038-0.014-0.059c0,0,0,0,0-0.001
				l-0.001,0c-0.003-0.036,0.002-0.071,0.014-0.103c0.035-0.094,0.799-2.116,1.99-2.591c0.379-0.152,0.757-0.133,1.13,0.047
				c0.395,0.194,0.585,0.445,0.564,0.744c-0.033,0.459-0.663,0.91-1.379,1.279c0.74-0.06,1.495-0.029,1.956,0.243
				c0.244,0.146,0.398,0.347,0.458,0.598c0.124,0.521-0.055,0.793-0.226,0.929C145.063,408.488,144.537,408.49,143.948,408.377z
				 M141.783,407.154c1.28,0.565,2.873,1.07,3.29,0.737c0.036-0.029,0.147-0.117,0.064-0.461c-0.03-0.128-0.111-0.229-0.246-0.309
				C144.27,406.75,142.766,406.949,141.783,407.154z M143.53,404.785c-0.166-0.032-0.333-0.014-0.503,0.054
				c-0.65,0.259-1.215,1.201-1.528,1.856c1.302-0.473,2.562-1.134,2.591-1.527c0.009-0.122-0.189-0.238-0.307-0.296
				C143.699,404.83,143.615,404.801,143.53,404.785z"/>
		</g>
		<path style="fill:#263238;" d="M91.003,407.144c0.017-0.711,8.756-0.154,8.756-0.154s5.377,5.469,10.599,6.697
			c5.223,1.229,2.304,4.363-3.533,4.363s-10.292,0-14.44,0C88.238,418.05,90.83,414.517,91.003,407.144z"/>
		<g>
			<path style="fill:#407BFF;" d="M104.358,409.227c-1.221,0-3.162-0.889-3.622-1.108c-0.031-0.014-0.057-0.034-0.077-0.06l0,0h0
				c-0.012-0.015-0.022-0.032-0.031-0.048c-0.025-0.054-0.03-0.117-0.009-0.177c0.031-0.087,0.765-2.127,1.95-2.62
				c0.376-0.156,0.757-0.145,1.131,0.031c0.398,0.189,0.592,0.436,0.574,0.735c-0.026,0.459-0.649,0.92-1.359,1.299
				c0.74-0.073,1.496-0.052,1.96,0.214c0.246,0.142,0.403,0.341,0.467,0.591c0.132,0.518-0.042,0.793-0.211,0.932
				C104.947,409.166,104.677,409.227,104.358,409.227z M101.535,407.973c1.287,0.545,2.889,1.027,3.301,0.688
				c0.036-0.03,0.145-0.119,0.058-0.462c-0.033-0.128-0.114-0.227-0.25-0.306C104.014,407.532,102.516,407.755,101.535,407.973z
				 M103.099,405.566c-0.117,0-0.235,0.025-0.354,0.075c-0.646,0.268-1.198,1.218-1.5,1.879c1.295-0.492,2.546-1.172,2.568-1.565
				c0.007-0.122-0.192-0.236-0.312-0.292C103.366,405.599,103.232,405.566,103.099,405.566z"/>
		</g>
	</g>
</g>
</svg>
